<svg width="271" height="144" viewBox="0 0 271 144" fill="none" xmlns="http://www.w3.org/2000/svg">
<g clip-path="url(#clip0_206_623)">
<path d="M158.183 51.4209C156.189 51.4209 154.239 52.0105 152.58 53.1151C150.921 54.2198 149.629 55.7898 148.865 57.6268C148.102 59.4637 147.902 61.4851 148.291 63.4352C148.681 65.3853 149.641 67.1766 151.052 68.5825C152.462 69.9884 154.259 70.9459 156.216 71.3338C158.172 71.7217 160.2 71.5226 162.043 70.7617C163.886 70.0008 165.461 68.7123 166.569 67.0591C167.677 65.4059 168.269 63.4622 168.269 61.4739C168.269 58.8077 167.206 56.2507 165.315 54.3654C163.423 52.4801 160.858 51.4209 158.183 51.4209Z" fill="#008E39"/>
<path d="M238.096 135.243L198.913 79.5485H186.016V43.6098H198.737L158.184 0L117.455 43.6098H130.071V79.5485H117.42V88.3055H130.071V135.243H106.385C109.024 132.237 110.908 128.649 111.882 124.775C112.855 120.901 112.89 116.851 111.984 112.96C111.078 109.07 109.256 105.45 106.669 102.399C104.083 99.3488 100.805 96.9552 97.1078 95.4162C97.1078 95.0659 97.1078 94.7157 97.1078 94.3654C96.8632 87.8071 94.0774 81.5987 89.3361 77.0452C84.5947 72.4916 78.267 69.9475 71.6829 69.9475C65.0989 69.9475 58.7711 72.4916 54.0298 77.0452C49.2884 81.5987 46.5027 87.8071 46.258 94.3654C46.2405 94.6804 46.2405 94.9961 46.258 95.3111C42.5586 96.8634 39.2814 99.2685 36.6958 102.329C34.1101 105.389 32.2897 109.017 31.3842 112.914C30.4786 116.812 30.5137 120.868 31.4866 124.75C32.4595 128.632 34.3424 132.228 36.9806 135.243H0.046875V144H270.953V135.243H238.096ZM194.345 88.3055L227.378 135.243H186.016V88.3055H194.345ZM158.184 12.8553L178.601 35.028H137.591L158.184 12.8553ZM139.032 43.6098H177.231V79.5485H138.961L139.032 43.6098ZM177.231 88.3055V107.396H138.961V88.3055H177.231ZM138.961 116.153H177.231V135.243H138.961V116.153ZM56.2734 135.243C51.8617 135.243 47.6302 133.499 44.5074 130.392C41.3846 127.286 39.6256 123.072 39.6163 118.675C39.5936 115.008 40.8077 111.44 43.0637 108.543C45.3197 105.646 48.4867 103.589 52.0564 102.702L56.2734 101.791L55.43 97.5879C55.2237 96.526 55.1178 95.4471 55.1137 94.3654C55.0856 92.0332 55.5508 89.7213 56.479 87.5803C57.4071 85.4393 58.7774 83.5172 60.5006 81.9393C62.2237 80.3614 64.261 79.163 66.4798 78.4224C68.6986 77.6817 71.049 77.4153 73.378 77.6405C75.707 77.8657 77.9622 78.5775 79.9968 79.7295C82.0314 80.8815 83.7996 82.4478 85.1864 84.3264C86.5731 86.2051 87.5471 88.3538 88.0451 90.6328C88.5431 92.9117 88.5538 95.2696 88.0765 97.5529L87.2331 101.581L91.2743 102.597C95.2092 103.574 98.6487 105.954 100.943 109.287C103.237 112.62 104.226 116.675 103.724 120.686C103.222 124.697 101.264 128.386 98.2187 131.055C95.1736 133.724 91.253 135.189 87.1979 135.173L56.2734 135.243Z" fill="#008E39"/>
</g>
<defs>
<clipPath id="clip0_206_623">
<rect width="271" height="144" fill="white"/>
</clipPath>
</defs>
</svg>
