<svg width="161" height="190" viewBox="0 0 161 190" fill="none" xmlns="http://www.w3.org/2000/svg">
<g clip-path="url(#clip0_206_608)">
<path d="M47.0137 170.16H113.987V129.466H47.0137V170.16ZM55.7706 138.214H105.125V161.412H55.7706V138.214Z" fill="#008E39"/>
<path d="M66.9441 144.792C65.9436 144.785 64.9636 145.076 64.1287 145.627C63.2939 146.178 62.642 146.964 62.2559 147.886C61.8698 148.808 61.767 149.824 61.9605 150.805C62.154 151.786 62.6351 152.687 63.3426 153.394C64.0501 154.1 64.9521 154.581 65.9338 154.774C66.9154 154.968 67.9325 154.865 68.8556 154.479C69.7787 154.093 70.5661 153.442 71.1176 152.608C71.6692 151.774 71.96 150.795 71.9531 149.796C71.9531 148.469 71.4254 147.196 70.486 146.258C69.5466 145.319 68.2726 144.792 66.9441 144.792Z" fill="#008E39"/>
<path d="M79.5887 117.359C95.106 117.359 102.217 107.387 103.653 98.0444C105.229 88.0021 101.551 81.8437 97.628 75.3354C94.8254 70.9652 92.578 66.2637 90.9377 61.3391L89.1513 55.6006L84.2124 59.0997C77.7275 64.1374 72.5597 70.6684 69.1504 78.1347L68.0996 76.735L63.3358 69.7369L60.4285 77.5748C55.6297 90.5214 55.7699 100.774 60.8839 108.087C63.0208 111.026 65.8383 113.405 69.0956 115.019C72.3529 116.634 75.9532 117.437 79.5887 117.359ZM66.5934 88.282L67.6442 89.3317L72.6532 94.2304L74.86 87.5822C77.1254 81.1616 80.5836 75.2259 85.053 70.0868C86.5982 73.4362 88.3531 76.6851 90.3072 79.8142C93.81 85.7976 96.2619 89.7516 95.176 96.6798C94.6156 100.179 92.0235 108.577 79.7638 108.577C77.556 108.634 75.3651 108.177 73.3648 107.242C71.3645 106.306 69.6098 104.918 68.2397 103.188C66.9749 100.942 66.1772 98.4642 65.8943 95.9028C65.6114 93.3414 65.8492 90.7493 66.5934 88.282Z" fill="#008E39"/>
<path d="M133.812 181.252V37.0552H101.166V0H92.4091V37.0552H68.5552V0H59.7983V37.0552H27.1875V181.252H0.0410156V190H160.958V181.252H133.812ZM35.9444 181.252V45.8029H125.055V181.252H35.9444Z" fill="#008E39"/>
</g>
<defs>
<clipPath id="clip0_206_608">
<rect width="161" height="190" fill="white"/>
</clipPath>
</defs>
</svg>
