<svg width="160" height="197" viewBox="0 0 160 197" fill="none" xmlns="http://www.w3.org/2000/svg">
<g clip-path="url(#clip0_206_616)">
<path d="M122.191 112.431V99.6068H113.416V112.431H46.7225V48.5913H59.1836V39.8076H37.8066V112.431H0.00195312V196.754H159.996V112.431H122.191ZM75.6113 188.216H8.77741V121.461H75.4709L75.6113 188.216ZM151.221 188.216H84.2463V121.461H150.94L151.221 188.216Z" fill="#008E39"/>
<path d="M72.3114 66.1585L75.1546 71.0423L88.1072 75.7854L95.1276 87.7312L100.428 89.6636L113.416 84.9556L126.368 89.6636L131.598 87.8366L138.619 75.8908L151.606 71.1477L154.415 66.264L151.887 52.702L158.908 40.7211L157.96 35.1347L147.429 26.2456L145.042 12.6133L140.409 8.88907H126.719L116.118 0H110.467L99.9365 8.88907H86.1064L81.7889 12.4025L79.3669 26.0348L68.8012 35.1347L67.8184 40.6859L74.8387 52.6668L72.3114 66.1585ZM86.3521 31.832L87.7562 29.232L89.7921 17.5673H101.516L104.324 16.5484L113.31 8.99447L122.296 16.5484L125.105 17.5673H136.899L138.935 29.1266L140.444 31.7266L149.43 39.2805L143.498 49.5399L142.971 52.4912L145.007 64.0505L133.985 68.0558L131.704 69.9882L125.807 80.1773L114.82 76.1368H111.801L100.779 80.1773L94.7766 69.9882L92.4949 68.0558L81.473 64.0505L83.5089 52.4912L82.9823 49.5399L77.2256 39.3859L86.3521 31.832Z" fill="#008E39"/>
<path d="M133.811 37.418L127.598 31.1992L109.731 49.1179L100.008 39.4207L93.7949 45.6044L109.731 61.5556L133.811 37.418Z" fill="#008E39"/>
</g>
<defs>
<clipPath id="clip0_206_616">
<rect width="160" height="197" fill="white"/>
</clipPath>
</defs>
</svg>
