<svg width="271" height="143" viewBox="0 0 271 143" fill="none" xmlns="http://www.w3.org/2000/svg">
<g clip-path="url(#clip0_206_639)">
<path d="M271 0.0195312H52.26V8.7345H230.338V134.265H79.8134L6.25574 60.0134L0 66.1138L76.1232 142.98H239.124V8.7345H271V0.0195312Z" fill="#008E39"/>
<path d="M181.872 125.271H197.547L203.451 119.415V105.471L210.48 98.8127V67.4388L204.26 61.0246L191.115 27.2803H111.056L97.912 61.1989L91.6914 67.6131V98.987L98.7203 105.645V119.589L104.625 125.446H120.299L126.168 119.589V106.621H176.003V119.415L181.872 125.271ZM193.927 116.556H185.527L184.789 115.824V106.621H194.665V115.824L193.927 116.556ZM117.101 35.9952H185.071L194.103 59.2816H108.069L117.101 35.9952ZM173.332 67.9269L161.664 79.4655H139.453L127.785 67.9269H173.332ZM103.57 67.9269H115.379L134.498 86.9255L137.625 88.1805H163.527L166.62 86.9255L185.773 67.9269H198.601L201.694 71.0991V79.4655H184.649V88.1805H201.694V95.1525L198.742 97.9412H103.43L100.478 95.1525V88.1805H117.523V79.4655H100.478V71.0991L103.57 67.9269ZM117.382 115.824L116.644 116.556H108.245L107.506 115.824V106.621H117.382V115.824Z" fill="#008E39"/>
</g>
<defs>
<clipPath id="clip0_206_639">
<rect width="271" height="143" fill="white"/>
</clipPath>
</defs>
</svg>
