<svg width="213" height="180" viewBox="0 0 213 180" fill="none" xmlns="http://www.w3.org/2000/svg">
<g clip-path="url(#clip0_206_600)">
<path d="M182.243 171.214V105.779L152.065 78.403H129.055V42.7684L79.9068 0L30.7238 42.7684V171.214H0.0195312V180H212.982V171.214H182.243ZM129.055 157.368H160.672V148.583H129.055V134.736H160.672V125.951H129.055V112.14H173.46V171.214H129.055V157.368ZM148.658 87.0832L166.469 103.249H129.055V87.0832H148.658ZM112.93 40.3788H46.8839L79.9068 11.6322L112.93 40.3788ZM39.5416 49.1995H120.342V171.214H95.9967V142.011H63.5359V171.5H72.3186V150.797H87.214V171.214H39.5416V49.1995Z" fill="#008E39"/>
<path d="M61.9194 61.9209H53.1367V129.711H61.9194V61.9209Z" fill="#008E39"/>
<path d="M84.2983 61.9209H75.5156V129.711H84.2983V61.9209Z" fill="#008E39"/>
<path d="M106.677 61.9209H97.8945V129.711H106.677V61.9209Z" fill="#008E39"/>
</g>
<defs>
<clipPath id="clip0_206_600">
<rect width="213" height="180" fill="white"/>
</clipPath>
</defs>
</svg>
