<svg width="188" height="191" viewBox="0 0 188 191" fill="none" xmlns="http://www.w3.org/2000/svg">
<g clip-path="url(#clip0_206_631)">
<path d="M82.8991 54.6762V45.9531H49.2832V149.339H138.715V45.9531H106.645V54.6762H129.933V140.616H98.3899V86.0094H112.23V77.2863H75.8036V86.0094H89.6083V140.616H58.0648V54.6762H82.8991Z" fill="#008E39"/>
<path d="M165.095 36.567L158.421 42.2545C172.989 59.1297 180.289 81.0201 178.745 103.197C177.201 125.374 166.936 146.058 150.169 160.78C133.401 175.502 111.476 183.082 89.1291 181.881C66.7826 180.681 45.8084 170.796 30.7371 154.363C17.3258 139.75 9.49037 120.933 8.59144 101.179C7.6925 81.4255 13.7868 61.9828 25.8162 46.2275C37.8455 30.4723 55.0499 19.3996 74.4419 14.9323C93.8339 10.465 114.189 12.8852 131.971 21.7727L118.342 24.4246L128.88 31.403L149.605 27.6346L145.635 6.97844L135.098 0L137.908 15.1083C123.942 7.75353 108.335 4.01587 92.5296 4.24107C76.7243 4.46626 61.2314 8.64704 47.484 16.3967C33.7365 24.1463 22.1785 35.2146 13.879 48.5777C5.57943 61.9407 0.80645 77.167 0.0015002 92.8482C-1.27035 117.577 7.3947 141.796 24.0921 160.181C40.7895 178.567 64.1528 189.614 89.0469 190.895H93.9294C111.925 190.888 129.54 185.75 144.682 176.092C159.824 166.433 171.857 152.66 179.352 136.408C186.846 120.157 189.486 102.11 186.959 84.4116C184.432 66.7133 176.844 50.1076 165.095 36.567Z" fill="#008E39"/>
</g>
<defs>
<clipPath id="clip0_206_631">
<rect width="188" height="191" fill="white"/>
</clipPath>
</defs>
</svg>
