<svg width="20" height="24" viewBox="0 0 20 24" fill="none" xmlns="http://www.w3.org/2000/svg">
<g clip-path="url(#clip0_136_2506)">
<path d="M9.90816 23.9989L9.38336 23.7313C8.99947 23.538 0 18.8344 0 10.0519C0.057207 7.42405 1.12085 4.92354 2.96319 3.08569C4.80553 1.24784 7.28013 0.21875 9.85714 0.21875C12.4342 0.21875 14.9088 1.24784 16.7511 3.08569C18.5934 4.92354 19.6571 7.42405 19.7143 10.0519C19.7143 17.7639 10.7926 23.4339 10.4135 23.6866L9.90816 23.9989ZM9.85957 2.16637C7.80908 2.16768 5.84287 2.99874 4.3925 4.47712C2.94213 5.95551 2.1261 7.96044 2.12353 10.0519C2.12353 16.4009 7.99845 20.4105 9.80612 21.496C11.6089 20.2271 17.581 15.598 17.581 10.0519C17.5785 7.96301 16.7645 5.96033 15.3172 4.48237C13.87 3.0044 11.9075 2.17161 9.85957 2.16637Z" fill="#008E39"/>
<path d="M9.85777 14.3735C8.99279 14.3735 8.14724 14.1119 7.42804 13.6217C6.70884 13.1316 6.14829 12.4349 5.81728 11.6199C5.48627 10.8048 5.39966 9.90788 5.56841 9.04259C5.73716 8.1773 6.15368 7.38249 6.76531 6.75865C7.37694 6.13482 8.15621 5.70998 9.00456 5.53786C9.85292 5.36574 10.7323 5.45408 11.5314 5.7917C12.3305 6.12932 13.0136 6.70105 13.4941 7.43461C13.9747 8.16816 14.2312 9.03059 14.2312 9.91283C14.2312 11.0959 13.7704 12.2305 12.9502 13.067C12.1301 13.9035 11.0177 14.3735 9.85777 14.3735ZM9.85777 7.58832C9.41159 7.59321 8.97678 7.73244 8.60792 7.98853C8.23906 8.24462 7.9526 8.60614 7.7845 9.02772C7.61641 9.4493 7.57417 9.91213 7.66309 10.3581C7.75202 10.8041 7.96814 11.2133 8.28432 11.5345C8.6005 11.8556 9.00265 12.0743 9.44028 12.1631C9.87791 12.2519 10.3315 12.2068 10.7441 12.0336C11.1567 11.8603 11.5099 11.5666 11.7595 11.1893C12.009 10.812 12.1436 10.3679 12.1465 9.91283C12.1459 9.60761 12.0861 9.30554 11.9705 9.02399C11.855 8.74244 11.686 8.48699 11.4733 8.27232C11.2605 8.05766 11.0083 7.88802 10.731 7.77318C10.4538 7.65835 10.157 7.60057 9.85777 7.60319V7.58832Z" fill="#008E39"/>
</g>
<defs>
<clipPath id="clip0_136_2506">
<rect width="19.7143" height="24" fill="white"/>
</clipPath>
</defs>
</svg>
